<svg width="20" height="20" viewBox="0 0 20 20" fill="none" xmlns="http://www.w3.org/2000/svg">
<path d="M9.53907 13.5476C9.63282 13.0672 9.07032 12.3758 8.27344 11.6453C7.45703 10.8953 6.39063 10.118 5.79688 9.82499C4.94922 9.35624 4.16797 9.75467 3.98828 10.7117C3.79297 11.7351 3.98828 12.7195 4.55469 13.5984C4.95313 14.2039 5.54688 14.4851 6.25 14.5359C6.70313 14.5594 8.30078 14.6219 8.66016 14.4969C9.125 14.3289 9.44532 14.0359 9.53907 13.5476ZM17.5469 14.3601C17.5213 14.3389 17.4908 14.3242 17.4583 14.3174C17.4257 14.3106 17.3919 14.3118 17.3599 14.3211C17.3279 14.3303 17.2987 14.3473 17.2748 14.3704C17.2509 14.3936 17.233 14.4222 17.2227 14.4539C16.9102 15.4461 15.4766 18.8484 10.5 19.2C4.65234 19.6101 13.6367 20.9031 16.1797 18.95C17.0664 18.2703 18.0391 17.5828 18 15.6141C17.9844 15.2195 17.8086 14.5715 17.5469 14.3601ZM19.9688 9.57889C19.957 8.84061 19.6328 8.27421 18.9531 7.93046C18.8398 7.87967 18.7578 7.82499 18.7227 7.68046C18.4864 6.35619 17.9462 5.10477 17.1445 4.02459C17.1016 3.966 17.0078 3.8996 17.0586 3.82928C17.3906 3.38006 17.0469 3.12616 16.7852 2.87616C13.9648 0.149334 10.6797 -0.638557 6.92969 0.512485C5.36328 0.992953 4.04297 1.90311 2.94531 3.1453C2.78906 3.31327 2.68359 3.50077 2.82813 3.7117C2.94531 3.86795 2.87891 3.95389 2.78906 4.07499C2.01563 5.15741 1.49219 6.35233 1.25391 7.65741C1.22656 7.82538 1.14063 7.89178 1.00391 7.9621C0.449219 8.23553 0.125 8.68475 0.03125 9.29022L0 10.325V11.1414C0 12.3445 0.820313 13.1101 2.02344 13.0555C2.32422 13.0437 2.48047 12.8875 2.49219 12.6062C2.57031 9.57889 2.39844 8.87967 2.63672 7.69217C3.59766 2.82889 9.15235 0.196469 13.4883 2.55545C16.0703 3.98553 17.4102 6.2121 17.4844 9.17264C17.5156 10.2742 17.4844 11.3797 17.4844 12.4773C17.4844 12.7508 17.5703 12.9656 17.8516 13.032C18.793 13.2273 19.7734 12.5633 19.9297 11.5984C20.043 10.9305 19.9688 10.2508 19.9688 9.57889ZM13.7344 14.7156C15.1602 14.825 16.0508 13.6023 16.0156 12.3523C15.9336 10.5867 13.4297 11.7078 12.5859 12.0398C9.72657 13.1375 10.8281 14.1844 11.7188 14.4148L13.7344 14.7156Z" fill="#0064D2"/>
</svg>
