<svg width="20" height="20" viewBox="0 0 20 20" fill="none" xmlns="http://www.w3.org/2000/svg">
<path d="M10 16.25C14.4883 16.25 18.125 12.6133 18.125 8.125C18.125 3.63672 14.4883 0 10 0C5.51172 0 1.875 3.63672 1.875 8.125C1.875 12.6133 5.51172 16.25 10 16.25ZM9.13281 3.80469V3.14844C9.13281 2.78906 9.42188 2.5 9.78125 2.5H10.2148C10.5742 2.5 10.8633 2.78906 10.8633 3.14844V3.8125C11.4688 3.84375 12.0547 4.05078 12.543 4.41406C12.7617 4.57422 12.7852 4.89453 12.5898 5.08203L11.9531 5.6875C11.8047 5.83203 11.582 5.83594 11.4062 5.72656C11.1953 5.59375 10.9609 5.52734 10.7109 5.52734H9.19141C8.83984 5.52734 8.55469 5.84766 8.55469 6.24219C8.55469 6.5625 8.75 6.84766 9.02734 6.92969L11.4609 7.66016C12.4648 7.96094 13.168 8.92578 13.168 10.0078C13.168 11.3359 12.1367 12.4102 10.8594 12.4453V13.1016C10.8594 13.4609 10.5703 13.75 10.2109 13.75H9.77734C9.41797 13.75 9.12891 13.4609 9.12891 13.1016V12.4375C8.52344 12.4062 7.9375 12.1992 7.44922 11.8359C7.23047 11.6758 7.20703 11.3555 7.40234 11.168L8.03906 10.5625C8.1875 10.418 8.41016 10.4141 8.58594 10.5234C8.79688 10.6562 9.03125 10.7227 9.28125 10.7227H10.8008C11.1523 10.7227 11.4375 10.4023 11.4375 10.0078C11.4375 9.6875 11.2422 9.40234 10.9648 9.32031L8.53125 8.58984C7.52734 8.28906 6.82422 7.32422 6.82422 6.24219C6.82812 4.91406 7.85547 3.83984 9.13281 3.80469ZM18.75 13.75H17.4805C16.7148 14.7656 15.7383 15.6133 14.6289 16.25H17.1211C17.3281 16.25 17.4961 16.3906 17.4961 16.5625V17.1875C17.4961 17.3594 17.3281 17.5 17.1211 17.5H2.875C2.66797 17.5 2.5 17.3594 2.5 17.1875V16.5625C2.5 16.3906 2.66797 16.25 2.875 16.25H5.36719C4.25781 15.6133 3.28516 14.7656 2.51562 13.75H1.25C0.558594 13.75 0 14.3086 0 15V18.75C0 19.4414 0.558594 20 1.25 20H18.75C19.4414 20 20 19.4414 20 18.75V15C20 14.3086 19.4414 13.75 18.75 13.75Z" fill="#0064D2"/>
</svg>
